# xmcd
# 
# Track frame offsets:
#     150
#     22050
#     49116
#     66798
#     90911
#     125186
#     153096
#     198321
#     221646
#     245581
#     296750
#     319232
# 
# Disc length: 4550
# 
# Revision: 0
# Processed by: cddbd v1.5.2PL0 Copyright (c) Steve Scherf et al.
# Submitted via: fre:ac v1.0.31
# 
DISCID=b111c40c
DTITLE=Various Artist - Sean Carney's Blues For A Cure Blues Cures Studio Jam, Vol. 3
DYEAR=2011
DGENRE=Blues
TTITLE0=Omar Coleman - Hold On Me
TTITLE1=Jonn Richardson - Commit A Crime
TTITLE2=Ray Fuller - Wild About You Baby
TTITLE3=Omar Coleman - You Dont Have To Go
TTITLE4=Sean Carney - Cherry Red
TTITLE5=Duke Robillard - Hold It Right There
TTITLE6=Enrico Crivellaro - Alligator Boogaloo
TTITLE7=Omar Coleman - Two Headed Woman
TTITLE8=Ray Fuller - Feelin' Evil
TTITLE9=Jonn Richardson - Changing Neighborhoods
TTITLE10=Phil Berkowitz - Junco Partner
TTITLE11=Ray Fuller and Omar Coleman - Who's Gonna Be Your Sweet Man
EXTD=
EXTT0=
EXTT1=
EXTT2=
EXTT3=
EXTT4=
EXTT5=
EXTT6=
EXTT7=
EXTT8=
EXTT9=
EXTT10=
EXTT11=
PLAYORDER=
